<?xml version="1.0" encoding="iso-8859-1"?>
<!-- Generator: Adobe Illustrator 19.0.0, SVG Export Plug-In . SVG Version: 6.00 Build 0)  -->
<svg version="1.1" id="Layer_1" xmlns="http://www.w3.org/2000/svg" xmlns:xlink="http://www.w3.org/1999/xlink" x="0px" y="0px"
	 viewBox="0 0 512 512" style="enable-background:new 0 0 512 512;" xml:space="preserve">
<path style="fill:#FEE570;" d="M258.737,320.631h-5.474c-113.95,0-211.617,77.232-232.094,183.534l0,0h469.663l0,0
	C470.353,397.863,372.686,320.631,258.737,320.631z"/>
<path style="fill:#E8CB4F;" d="M258.737,320.631h-5.474c-3.043,0-6.073,0.067-9.092,0.175
	c110.017,3.982,203.072,79.896,223.003,183.359l0,0h23.658l0,0C470.353,397.863,372.686,320.631,258.737,320.631z"/>
<circle style="fill:#C9E7F8;" cx="256.005" cy="222.482" r="214.647"/>
<path style="fill:#A2D8F4;" d="M256,7.835L256,7.835v429.291l0,0c118.546,0,214.645-96.1,214.645-214.645S374.545,7.835,256,7.835z"
	/>
<path style="fill:#FEE570;" d="M356.138,91.997l-0.14-0.216c-10.959-16.85-27.066-29.71-45.925-36.665l-17.654-6.51
	c-23.505-8.669-49.332-8.669-72.837,0l-17.655,6.511c-18.858,6.955-34.966,19.815-45.925,36.665l-0.14,0.215
	c-14.816,22.783-22.156,49.622-20.994,76.774l4.179,97.609c0.936,21.869,5.432,43.439,13.312,63.861l4.323,11.203
	c7.919,20.522,21.228,38.528,38.524,52.119l0,0c13.375,10.509,29.892,16.222,46.901,16.222h27.784
	c17.01,0,33.526-5.712,46.901-16.222l0,0c17.297-13.59,30.607-31.596,38.524-52.119l4.323-11.203
	c7.879-20.422,12.376-41.992,13.312-63.861l4.179-97.609C378.294,141.619,370.955,114.781,356.138,91.997z"/>
<path style="fill:#F7DA61;" d="M88.018,131.411l-6.005,8.542c-11.005,15.656-16.911,34.328-16.911,53.465l0,0
	c0,24.26,9.482,47.559,26.425,64.925l0.89,0.912c11.433,11.718,19.225,26.498,22.435,42.55l1.735,8.676
	c0.979,4.892,7.044,6.679,10.518,3.096l0,0c17.738-18.293,27.659-42.773,27.659-68.254v-9.206c0-6.956-0.741-13.893-2.208-20.692
	l-9.703-44.937c-0.188-0.869-0.365-1.739-0.53-2.612c-6.499-34.216,5.787-69.316,31.449-92.862l15.42-14.15
	C189.192,60.864,130.336,80.497,88.018,131.411z"/>
<path style="fill:#E8CB4F;" d="M139.854,85.914c-18.55,22.779-26.749,52.69-21.189,81.962c0.166,0.871,0.343,1.741,0.53,2.612
	l9.703,44.937c1.468,6.8,2.208,13.736,2.208,20.692v9.206c0,19.592-5.885,38.579-16.659,54.631c0.138,0.616,0.281,1.231,0.405,1.851
	l1.735,8.676c0.979,4.892,7.044,6.677,10.518,3.096c17.738-18.293,27.659-42.773,27.659-68.254v-9.206
	c0-6.956-0.741-13.893-2.208-20.692l-9.703-44.937c-0.188-0.869-0.365-1.739-0.53-2.612c-6.499-34.216,5.786-69.316,31.449-92.862
	l15.42-14.149C189.192,60.864,166.88,68.311,139.854,85.914z"/>
<path style="fill:#F7DA61;" d="M423.982,131.411l6.005,8.542c11.005,15.656,16.911,34.328,16.911,53.465l0,0
	c0,24.26-9.482,47.559-26.425,64.925l-0.89,0.912c-11.433,11.718-19.225,26.498-22.435,42.55l-1.735,8.676
	c-0.979,4.892-7.044,6.679-10.518,3.096l0,0c-17.738-18.293-27.659-42.773-27.659-68.254v-9.206c0-6.956,0.741-13.893,2.208-20.692
	l9.703-44.937c0.188-0.869,0.365-1.739,0.53-2.612c6.499-34.216-5.787-69.316-31.449-92.862l-15.42-14.15
	C322.808,60.864,381.663,80.497,423.982,131.411z"/>
<path style="fill:#E8CB4F;" d="M429.987,139.953l-6.005-8.542c-42.319-50.914-101.175-70.546-101.175-70.546l15.42,14.149
	c3.708,3.402,7.127,7.053,10.26,10.9c16.869,10.988,35.573,25.93,51.836,45.496l6.005,8.542
	c11.005,15.656,16.911,34.328,16.911,53.465l0,0c0,24.26-9.482,47.559-26.425,64.925l-0.89,0.912
	c-10.991,11.266-18.604,25.365-22.031,40.7c3.238,4.824,6.9,9.396,10.999,13.623l0,0c3.474,3.581,9.539,1.796,10.518-3.096
	l1.735-8.676c3.21-16.053,11.003-30.832,22.436-42.551l0.89-0.912c16.941-17.365,26.424-40.665,26.424-64.925l0,0
	C446.897,174.281,440.992,155.609,429.987,139.953z"/>
<path style="fill:#EAB200;" d="M211.394,299.415l36.617,36.617c4.413,4.413,11.565,4.413,15.978,0l36.617-36.617
	c7.117-7.117,2.077-19.288-7.989-19.288h-73.233C209.317,280.127,204.277,292.297,211.394,299.415z"/>
<path style="fill:#D8A601;" d="M292.617,280.127H256v59.213c2.892,0,5.783-1.103,7.99-3.31l36.617-36.617
	C307.723,292.297,302.682,280.127,292.617,280.127z"/>
<path d="M141.815,444.347c-0.67,0.339-6.73,3.521-13.264,10.935c-2.86,3.247-2.548,8.198,0.698,11.059
	c1.49,1.312,3.337,1.957,5.177,1.957c2.172,0,4.332-0.897,5.881-2.654c4.44-5.038,8.447-7.24,8.633-7.339
	c3.82-1.969,5.343-6.656,3.401-10.498C150.39,443.943,145.675,442.394,141.815,444.347z"/>
<path d="M200.687,208.672h7.375c4.327,0,7.835-3.508,7.835-7.835c0-4.327-3.508-7.835-7.835-7.835h-7.375
	c-4.327,0-7.835,3.508-7.835,7.835C192.852,205.164,196.359,208.672,200.687,208.672z"/>
<path d="M303.938,208.672h7.376c4.328,0,7.835-3.508,7.835-7.835c0-4.327-3.507-7.835-7.835-7.835h-7.376
	c-4.328,0-7.835,3.508-7.835,7.835C296.103,205.164,299.61,208.672,303.938,208.672z"/>
<path d="M86.808,264.726c10.4,10.66,17.441,24.013,20.362,38.616l1.735,8.677c1.307,6.536,7.105,11.28,13.784,11.28c0,0,0,0,0.001,0
	c3.806,0,7.371-1.516,10.039-4.267c1.981-2.043,3.865-4.157,5.661-6.328c1.878,6.906,4.094,13.714,6.658,20.358l4.323,11.203
	c8.421,21.827,22.596,41.004,40.993,55.459c14.688,11.54,33.064,17.895,51.742,17.895h27.784c18.68,0,37.055-6.355,51.743-17.895
	c18.396-14.455,32.572-33.633,40.993-55.46l4.322-11.203c2.564-6.644,4.78-13.452,6.659-20.359c1.796,2.172,3.68,4.285,5.661,6.328
	c2.669,2.753,6.235,4.267,10.04,4.267c6.681,0,12.477-4.745,13.784-11.281l1.735-8.676c2.92-14.602,9.961-27.955,20.359-38.615
	l0.892-0.914c18.476-18.938,28.651-43.939,28.651-70.396c0-20.859-6.34-40.905-18.336-57.971l-6.005-8.542
	c-0.121-0.173-0.25-0.341-0.384-0.502c-42.547-51.189-100.318-71.478-104.553-72.915c-4.12-2.204-8.37-4.137-12.671-5.723
	l-17.653-6.51c-12.568-4.636-25.734-6.986-39.13-6.986c-13.396,0-26.561,2.35-39.13,6.986l-17.654,6.51
	c-4.301,1.586-8.552,3.518-12.672,5.723c-4.237,1.442-62.005,21.731-104.55,72.918c-0.135,0.162-0.263,0.33-0.384,0.502
	l-6.005,8.542c-11.995,17.065-18.336,37.111-18.336,57.971c0,26.458,10.175,51.458,28.65,70.395L86.808,264.726z M242.107,401.951
	c-6.474,0-12.9-0.948-19.069-2.752l32.961-19.859l32.962,19.859c-6.171,1.804-12.597,2.752-19.07,2.752H242.107z M258.449,330.491
	c-0.883,0.883-1.913,1.014-2.449,1.014s-1.567-0.132-2.449-1.014l-36.617-36.617c-1.424-1.424-1.082-2.976-0.751-3.774
	c0.33-0.798,1.186-2.137,3.2-2.137h73.233c2.014,0,2.869,1.339,3.2,2.137c0.33,0.798,0.673,2.35-0.752,3.774L258.449,330.491z
	 M417.756,136.177l5.821,8.281c10.13,14.412,15.485,31.342,15.485,48.959c0,22.345-8.593,43.459-24.195,59.452l-0.892,0.914
	c-12.519,12.833-20.996,28.907-24.511,46.486l-1.109,5.545c-4.364-4.821-8.135-10.051-11.319-15.581
	c-0.088-0.19-0.182-0.378-0.286-0.562c-6.459-11.439-10.333-24.167-11.381-37.181c-0.059-0.74-0.113-1.479-0.153-2.222
	c-0.024-0.435-0.046-0.869-0.064-1.305c-0.048-1.21-0.084-2.422-0.084-3.639v-9.206c0-1.597,0.043-3.195,0.127-4.792
	c0.256-4.789,0.893-9.563,1.904-14.247l2.426-11.234l7.276-33.702c0.201-0.931,0.39-1.864,0.569-2.804
	c0.196-1.033,0.372-2.069,0.536-3.106c0.05-0.314,0.094-0.63,0.141-0.945c0.11-0.739,0.213-1.477,0.306-2.217
	c0.044-0.347,0.087-0.694,0.127-1.04c0.09-0.772,0.169-1.545,0.242-2.317c0.026-0.276,0.056-0.553,0.079-0.828
	c0.089-1.04,0.165-2.082,0.223-3.124c0.01-0.178,0.015-0.354,0.023-0.532c0.044-0.867,0.077-1.735,0.1-2.602
	c0.008-0.333,0.013-0.666,0.018-1.001c0.011-0.735,0.017-1.471,0.013-2.206c-0.002-0.336-0.002-0.673-0.007-1.009
	c-0.011-0.842-0.036-1.683-0.067-2.524c-0.007-0.202-0.011-0.404-0.02-0.606c-0.046-1.039-0.108-2.079-0.183-3.116
	c-0.019-0.259-0.044-0.517-0.065-0.775c-0.064-0.785-0.134-1.569-0.214-2.353c-0.035-0.341-0.073-0.68-0.111-1.021
	c-0.083-0.735-0.173-1.47-0.272-2.203c-0.042-0.315-0.083-0.632-0.127-0.948c-0.139-0.977-0.289-1.952-0.454-2.925
	c-0.008-0.05-0.016-0.101-0.024-0.151c-0.177-1.026-0.371-2.048-0.577-3.068c-0.061-0.3-0.126-0.599-0.189-0.898
	c-0.154-0.73-0.313-1.459-0.483-2.188c-0.078-0.34-0.159-0.678-0.24-1.016c-0.179-0.739-0.367-1.475-0.56-2.211
	c-0.074-0.28-0.144-0.561-0.22-0.84c-0.273-1.002-0.558-2.002-0.86-2.995c-0.044-0.144-0.092-0.286-0.136-0.43
	c-0.262-0.851-0.535-1.701-0.817-2.547c-0.106-0.317-0.216-0.632-0.325-0.949c-0.238-0.691-0.483-1.38-0.734-2.066
	c-0.119-0.323-0.237-0.647-0.358-0.968c-0.286-0.759-0.583-1.515-0.887-2.269c-0.088-0.218-0.172-0.439-0.261-0.657
	c-0.395-0.962-0.803-1.919-1.226-2.871c-0.101-0.23-0.209-0.457-0.312-0.685c-0.328-0.727-0.663-1.451-1.008-2.172
	c-0.151-0.317-0.305-0.631-0.459-0.945c-0.322-0.657-0.651-1.31-0.985-1.961c-0.154-0.298-0.305-0.597-0.461-0.892
	c-0.432-0.822-0.874-1.639-1.328-2.45c-0.057-0.103-0.112-0.208-0.17-0.31c-0.513-0.912-1.042-1.816-1.582-2.713
	c-0.156-0.26-0.317-0.517-0.475-0.775c-0.397-0.649-0.799-1.294-1.21-1.935c-0.189-0.296-0.38-0.59-0.572-0.885
	c-0.417-0.638-0.843-1.271-1.273-1.902c-0.17-0.25-0.339-0.5-0.512-0.749c-0.07-0.1-0.137-0.204-0.208-0.304
	C377.526,98.061,399.342,114.096,417.756,136.177z M204.638,62.468l17.654-6.51c10.827-3.993,22.168-6.017,33.707-6.017
	c11.54,0,22.88,2.025,33.708,6.017l17.654,6.51c3.753,1.384,7.474,3.07,11.072,5.018l14.497,13.301
	c19.338,17.746,30.312,42.733,30.593,68.091c0.054,4.876-0.287,9.767-1.042,14.622c-0.15,0.972-0.318,1.941-0.501,2.908
	c-0.154,0.81-0.319,1.618-0.493,2.427l-9.702,44.937c-1.583,7.33-2.385,14.849-2.385,22.346v9.206c0,1.009,0.019,2.016,0.047,3.022
	c0.006,0.204,0.015,0.406,0.022,0.61c0.03,0.892,0.071,1.781,0.123,2.669c0.005,0.086,0.01,0.171,0.016,0.257
	c0.927,15.193,5.066,29.809,12.087,43.027c-2.171,11.097-5.315,22.022-9.363,32.515l-4.322,11.203
	c-7.408,19.198-19.875,36.065-36.057,48.779c-2.576,2.025-5.3,3.839-8.127,5.462c-0.414-2.09-1.665-4.008-3.634-5.195
	l-36.356-21.904v-20.278c2.091-0.94,4.024-2.246,5.694-3.916l36.617-36.617c5.492-5.492,7.119-13.677,4.147-20.852
	c-2.972-7.175-9.91-11.811-17.677-11.811h-73.233c-7.766,0-14.705,4.636-17.677,11.811c-2.972,7.176-1.344,15.36,4.147,20.852
	l36.617,36.617c1.67,1.67,3.603,2.976,5.694,3.916v20.278l-36.356,21.904c-1.969,1.187-3.221,3.104-3.634,5.195
	c-2.828-1.622-5.551-3.438-8.127-5.463c-16.181-12.713-28.648-29.58-36.056-48.777l-4.323-11.203
	c-4.048-10.494-7.193-21.417-9.363-32.514c7.021-13.218,11.159-27.834,12.086-43.027c0.005-0.086,0.01-0.171,0.016-0.257
	c0.052-0.888,0.093-1.777,0.123-2.669c0.007-0.204,0.016-0.406,0.022-0.61c0.028-1.005,0.047-2.012,0.047-3.022v-9.206
	c0-2.524-0.099-5.049-0.28-7.569c-0.021-0.288-0.034-0.577-0.057-0.865c-0.108-1.349-0.251-2.694-0.411-4.038
	c-0.393-3.316-0.934-6.615-1.637-9.874l-8.37-38.765l-1.333-6.173c-0.021-0.096-0.038-0.192-0.059-0.287
	c-0.15-0.709-0.297-1.42-0.432-2.133c-0.927-4.881-1.43-9.806-1.529-14.728c-0.531-26.314,10.526-52.5,30.577-70.898l11.58-10.626
	l2.916-2.675C197.165,65.538,200.886,63.852,204.638,62.468z M88.423,144.458l5.821-8.28c18.414-22.081,40.231-38.119,58.546-49.042
	c-0.069,0.098-0.134,0.197-0.202,0.296c-0.181,0.259-0.356,0.521-0.534,0.781c-0.422,0.617-0.839,1.238-1.247,1.864
	c-0.2,0.305-0.397,0.61-0.593,0.916c-0.401,0.627-0.795,1.258-1.184,1.892c-0.166,0.271-0.334,0.54-0.497,0.812
	c-0.535,0.891-1.06,1.787-1.569,2.692c-0.072,0.128-0.14,0.258-0.212,0.387c-0.439,0.787-0.867,1.577-1.286,2.372
	c-0.162,0.308-0.32,0.618-0.48,0.928c-0.327,0.635-0.648,1.273-0.962,1.915c-0.161,0.329-0.322,0.658-0.481,0.988
	c-0.331,0.694-0.654,1.39-0.97,2.09c-0.116,0.256-0.235,0.509-0.349,0.766c-0.417,0.94-0.821,1.886-1.211,2.836
	c-0.1,0.245-0.195,0.493-0.295,0.74c-0.29,0.723-0.576,1.447-0.85,2.175c-0.13,0.344-0.256,0.689-0.383,1.034
	c-0.241,0.66-0.477,1.322-0.706,1.986c-0.117,0.337-0.234,0.675-0.348,1.014c-0.268,0.803-0.527,1.609-0.776,2.417
	c-0.057,0.185-0.119,0.369-0.175,0.555c-0.297,0.981-0.578,1.965-0.847,2.953c-0.084,0.307-0.162,0.616-0.242,0.925
	c-0.185,0.704-0.366,1.409-0.537,2.117c-0.088,0.361-0.172,0.723-0.257,1.084c-0.161,0.696-0.314,1.394-0.462,2.091
	c-0.069,0.328-0.141,0.656-0.208,0.985c-0.202,1.004-0.394,2.011-0.567,3.02c-0.019,0.108-0.033,0.216-0.051,0.324
	c-0.155,0.914-0.297,1.83-0.427,2.747c-0.049,0.342-0.092,0.683-0.138,1.025c-0.093,0.703-0.181,1.407-0.26,2.112
	c-0.041,0.364-0.081,0.727-0.119,1.092c-0.077,0.75-0.144,1.501-0.205,2.252c-0.023,0.288-0.051,0.576-0.072,0.864
	c-0.075,1.025-0.136,2.051-0.181,3.078c-0.01,0.233-0.015,0.466-0.023,0.699c-0.03,0.809-0.052,1.617-0.065,2.426
	c-0.005,0.354-0.006,0.708-0.007,1.063c-0.003,0.715,0.001,1.429,0.013,2.145c0.005,0.35,0.01,0.699,0.019,1.049
	c0.022,0.843,0.055,1.685,0.097,2.528c0.01,0.2,0.016,0.399,0.026,0.599c0.057,1.035,0.133,2.071,0.221,3.105
	c0.024,0.284,0.055,0.568,0.081,0.853c0.072,0.765,0.15,1.528,0.239,2.291c0.041,0.352,0.085,0.703,0.13,1.055
	c0.093,0.736,0.196,1.472,0.305,2.208c0.047,0.315,0.091,0.631,0.141,0.946c0.164,1.037,0.34,2.073,0.536,3.107
	c0.178,0.936,0.368,1.871,0.568,2.805l9.703,44.938c0.717,3.319,1.24,6.685,1.578,10.07c0.298,2.981,0.453,5.977,0.453,8.968v9.206
	c0,1.217-0.036,2.429-0.084,3.639c-0.018,0.435-0.04,0.87-0.064,1.305c-0.04,0.743-0.095,1.483-0.153,2.222
	c-1.048,13.014-4.92,25.742-11.38,37.181c-0.102,0.182-0.195,0.367-0.282,0.555c-3.185,5.534-6.959,10.766-11.323,15.59
	l-1.108-5.545c-3.516-17.579-11.992-33.653-24.51-46.484l-0.891-0.913c-15.604-15.994-24.198-37.108-24.198-59.453
	C72.937,175.8,78.292,158.871,88.423,144.458z"/>
<path d="M498.524,502.683c-9.759-50.663-37.181-96.91-77.532-131.116c35.709-39.481,57.487-91.786,57.487-149.086
	C478.48,99.804,378.675,0,256,0S33.52,99.804,33.52,222.48c0,19.631,2.547,39.061,7.572,57.752c1.123,4.179,5.423,6.655,9.599,5.533
	c4.179-1.124,6.657-5.422,5.533-9.6c-4.668-17.365-7.034-35.428-7.034-53.685C49.19,108.445,141.964,15.67,256,15.67
	s206.81,92.775,206.81,206.81S370.036,429.291,256,429.291c-56.549,0-108.954-22.648-146.979-61.073
	c-0.15-0.239-0.312-0.474-0.491-0.701c-0.527-0.668-1.141-1.221-1.811-1.668c-17.644-18.412-32.051-40.295-42.14-64.936
	c-1.639-4.004-6.213-5.922-10.22-4.282c-4.004,1.639-5.921,6.215-4.282,10.22c9.819,23.982,23.627,45.854,40.793,64.834
	c-40.277,34.193-67.646,80.393-77.395,130.999c-0.442,2.295,0.164,4.669,1.653,6.471S18.831,512,21.169,512h98.411
	c0,0,0.001,0,0.002,0c0,0,0.001,0,0.002,0h272.829c0.002,0,0.005,0,0.008,0s0.005,0,0.008,0h98.404c2.337,0,4.553-1.044,6.041-2.847
	C498.364,507.35,498.967,504.978,498.524,502.683z M399.936,496.33c-3.138-38.082-28.599-51.401-29.752-51.984
	c-3.862-1.95-8.606-0.42-10.557,3.442c-1.951,3.862-0.436,8.559,3.426,10.51c0.808,0.427,18.298,10.032,21.133,38.03H127.821
	c0.297-2.858,0.751-5.635,1.393-8.363c0.989-4.212-1.623-8.429-5.836-9.42c-4.212-0.989-8.429,1.622-9.42,5.836
	c-0.917,3.903-1.541,7.857-1.888,11.947H30.883c10.569-43.771,35.432-83.53,70.929-113.381c8.874,8.517,18.488,16.335,28.777,23.365
	c37.005,25.283,80.371,38.646,125.41,38.646c59.738,0,114.047-23.673,154.055-62.123c35.569,29.863,60.481,69.667,71.061,113.492
	h-81.179V496.33z"/>
<g>
</g>
<g>
</g>
<g>
</g>
<g>
</g>
<g>
</g>
<g>
</g>
<g>
</g>
<g>
</g>
<g>
</g>
<g>
</g>
<g>
</g>
<g>
</g>
<g>
</g>
<g>
</g>
<g>
</g>
</svg>
